<?xml version="1.0" encoding="UTF-8"?>
<!DOCTYPE svg PUBLIC "-//W3C//DTD SVG 1.1//EN" "http://www.w3.org/Graphics/SVG/1.1/DTD/svg11.dtd">
<!-- Creator: CorelDRAW -->
<svg xmlns="http://www.w3.org/2000/svg" xml:space="preserve" width="54.6628mm" height="18.3356mm" version="1.1" style="shape-rendering:geometricPrecision; text-rendering:geometricPrecision; image-rendering:optimizeQuality; fill-rule:evenodd; clip-rule:evenodd"
viewBox="0 0 8980.91 3012.48"
 xmlns:xlink="http://www.w3.org/1999/xlink"
 xmlns:xodm="http://www.corel.com/coreldraw/odm/2003">
 <defs>
  <style type="text/css">
   <![CDATA[
    .str1 {stroke:#94C120;stroke-width:32.86;stroke-miterlimit:22.9256}
    .str0 {stroke:#606062;stroke-width:16.43;stroke-miterlimit:22.9256}
    .str2 {stroke:#056734;stroke-width:41.07;stroke-linejoin:round;stroke-miterlimit:22.9256}
    .fil0 {fill:none}
    .fil5 {fill:#FEFEFE}
    .fil3 {fill:#009E4D}
    .fil4 {fill:#8ACB69}
    .fil1 {fill:#F4A621}
    .fil2 {fill:#F5D01F}
    .fil9 {fill:#606062;fill-rule:nonzero}
    .fil6 {fill:#373435;fill-rule:nonzero}
    .fil8 {fill:#056734;fill-rule:nonzero}
    .fil7 {fill:#94C120;fill-rule:nonzero}
   ]]>
  </style>
     <clipPath id="id0">
      <path d="M587.54 52.13l2572.89 0 0 1686.54 -2572.89 0 0 -1686.54z"/>
     </clipPath>
 </defs>
 <g id="Camada_x0020_1">
  <metadata id="CorelCorpID_0Corel-Layer"/>
  <g id="_2143223581072">
   <polygon class="fil0" points="-0,3012.48 8980.91,3012.48 8980.91,0 -0,0 "/>
   <path class="fil1" d="M1170.07 1520.25l354.12 148.11c-309.19,436.73 -304.92,873.47 -138.68,1310.2 -135.96,-80.69 -270.2,-187.07 -401.11,-343.54 -62.84,90.79 -125.65,173.81 -188.5,249.47 -104.39,-426.65 -23.22,-833.59 374.17,-1364.24z"/>
   <path class="fil2" d="M1208.96 1536.52l232.41 97.23c-244.33,341.69 -303.7,699.72 -262.66,1066.6l-189.65 -195.78 -133.38 151.6c-33.78,-234.29 101.67,-641.94 353.27,-1119.65z"/>
   <path class="fil1" d="M1573.3 1670.73l362.34 -158.89c89.85,363.14 258.41,597.51 498.28,715.17 -164.97,26.67 -331.45,38.18 -502.34,5.52l-16.73 369.83c-281.82,-137.93 -384.4,-460.03 -341.56,-931.63z"/>
   <path class="fil2" d="M1653.91 1635.39l211.73 -92.83c61.36,261.81 189.8,471.15 328.53,624.66l-342.43 -25.35 -20.13 254.2c-117.59,-126.33 -189.71,-375.2 -177.7,-760.68z"/>
   <path class="fil3" d="M2378.85 981.95c-39.46,-44.82 -90.92,-70.38 -90.92,-166.6 0,-21.79 3.6,-35.5 8.63,-52.69 9.56,-32.81 36.87,-119.02 26.91,-142.05 -16.89,-39 -106.89,-43.13 -171.03,-66.26 -57.39,-20.68 -96.61,-64.77 -112.99,-124.08 -46.94,-169.93 -28.9,-172.96 -166.99,-132.59 -65.78,19.22 -117.13,31.79 -181.12,-1.63 -21.47,-11.21 -37.16,-26.55 -54.33,-43.77 -102.54,-102.7 -99.63,-119.05 -171.67,-47.01 -115.71,115.71 -138.32,137.6 -296.54,94.21 -93.22,-25.56 -109.29,-36.47 -134.1,63.76 -22.71,91.73 -38.05,174.93 -149.59,206.03 -169.08,47.14 -173.32,27.73 -132.62,166.96 19.22,65.78 31.79,117.13 -1.63,181.12 -11.21,21.47 -26.55,37.16 -43.77,54.33 -83.36,83.23 -128.05,101.77 -48.85,173.55 3.7,3.34 4.81,4.3 8.56,7.77l44.46 41.39c54.05,56.14 78.8,117.57 55.68,196.84 -45.38,155.64 -46.99,154.87 51.23,182.65 31.71,8.99 65.26,15.71 92.89,25.66 57.26,20.64 96.52,64.88 113.02,124.04 47.15,169.06 27.72,173.32 166.96,132.62 153.08,-44.74 180.59,-9.51 286.55,96.49 13.64,13.65 34.35,39.84 58.24,39.84 48.09,0 114.33,-109.83 171.56,-139.09 114.83,-58.74 224.66,36.1 277.73,16.43 73.44,-27.22 16.35,-235.54 190.07,-284.36 167.32,-47.04 177.31,-25.93 135.82,-167.85 -44.56,-152.47 -12.09,-178.02 96.49,-286.57 55.45,-55.45 53.71,-63.37 -4.14,-120.54 -11.67,-11.53 -14.38,-17.1 -24.51,-28.62z"/>
   <path class="fil4" d="M1532.41 394.1c377.06,0 682.73,305.67 682.73,682.72 0,377.08 -305.67,682.75 -682.73,682.75 -377.08,0 -682.73,-305.67 -682.73,-682.75 0,-377.04 305.66,-682.72 682.73,-682.72z"/>
   <g>
    <g style="clip-path:url(#id0)">
     <image x="587.54" y="52.13" width="2572.89" height="1686.54" xlink:href="reclame_aqui_Images\reclame_aqui_ImgID1.png"/>
    </g>
   </g>
   <path class="fil5" d="M782.13 652.77c270.79,77.7 521.46,195.69 726.22,405.45 370.19,-422.23 875.96,-666.55 1457.48,-811.49 -631,304.49 -1130.16,728.79 -1470.65,1297.35 -149,-341.42 -379.16,-642.28 -713.05,-891.31z"/>
   <path class="fil6 str0" d="M2971.09 818.33l47.22 11.93c-9.86,38.69 -27.59,68.1 -53.18,88.39 -25.6,20.29 -56.91,30.49 -93.94,30.49 -38.28,0 -69.42,-7.79 -93.45,-23.45 -24.02,-15.58 -42.24,-38.18 -54.76,-67.77 -12.5,-29.66 -18.8,-61.38 -18.8,-95.34 0,-37.03 7.03,-69.35 21.21,-96.94 14.16,-27.59 34.29,-48.55 60.38,-62.89 26.11,-14.31 54.84,-21.44 86.16,-21.44 35.64,0 65.54,9.02 89.72,27.17 24.28,18.14 41.17,43.57 50.7,76.38l-46.23 10.93c-8.18,-25.84 -20.21,-44.74 -35.87,-56.49 -15.66,-11.86 -35.37,-17.73 -59.15,-17.73 -27.26,0 -50.13,6.54 -68.43,19.63 -18.3,13.09 -31.23,30.72 -38.59,52.76 -7.46,22.13 -11.19,44.9 -11.19,68.35 0,30.25 4.39,56.67 13.16,79.21 8.79,22.61 22.46,39.43 41.01,50.62 18.57,11.17 38.61,16.73 60.23,16.73 26.34,0 48.55,-7.62 66.77,-22.79 18.22,-15.23 30.56,-37.76 37.03,-67.76zm106.46 124.85l0 -355.9 256.98 0 0 41.76 -209.76 0 0 109.36 196.33 0 0 41.73 -196.33 0 0 121.28 218.22 0 0 41.76 -265.44 0zm331.53 0l0 -355.9 157.74 0c31.73,0 55.83,3.24 72.32,9.61 16.48,6.37 29.64,17.65 39.51,33.81 9.86,16.15 14.75,34.03 14.75,53.59 0,25.27 -8.21,46.55 -24.53,63.86 -16.31,17.32 -41.52,28.26 -75.64,32.97 12.52,5.96 21.95,11.93 28.42,17.73 13.75,12.6 26.76,28.41 38.94,47.38l61.55 96.94 -58.82 0 -47.05 -74.06c-13.67,-21.46 -25.02,-37.77 -33.88,-49.12 -8.95,-11.35 -16.91,-19.22 -23.95,-23.79 -6.95,-4.47 -14.15,-7.61 -21.44,-9.43 -5.32,-1.08 -14.01,-1.66 -26.19,-1.66l-54.51 0 0 158.07 -47.22 0zm47.22 -198.83l101.06 0c21.54,0 38.3,-2.23 50.37,-6.7 12.11,-4.4 21.29,-11.52 27.5,-21.39 6.31,-9.76 9.46,-20.36 9.46,-31.89 0,-16.81 -6.06,-30.72 -18.24,-41.58 -12.17,-10.84 -31.4,-16.23 -57.67,-16.23l-112.49 0 0 117.8zm392.26 198.83l0 -314.14 -117.29 0 0 -41.76 281.83 0 0 41.76 -117.31 0 0 314.14 -47.24 0zm221.13 0l0 -355.9 47.22 0 0 355.9 -47.22 0zm132.62 0l0 -355.9 240.09 0 0 41.76 -192.87 0 0 110.83 167.02 0 0 41.75 -167.02 0 0 161.55 -47.22 0zm309.09 0l0 -355.9 47.22 0 0 355.9 -47.22 0zm383.65 -124.85l47.22 11.93c-9.87,38.69 -27.59,68.1 -53.18,88.39 -25.61,20.29 -56.93,30.49 -93.96,30.49 -38.26,0 -69.42,-7.79 -93.45,-23.45 -24.02,-15.58 -42.24,-38.18 -54.74,-67.77 -12.52,-29.66 -18.8,-61.38 -18.8,-95.34 0,-37.03 7.03,-69.35 21.19,-96.94 14.18,-27.59 34.31,-48.55 60.4,-62.89 26.11,-14.31 54.84,-21.44 86.16,-21.44 35.64,0 65.52,9.02 89.71,27.17 24.28,18.14 41.19,43.57 50.72,76.38l-46.23 10.93c-8.2,-25.84 -20.22,-44.74 -35.87,-56.49 -15.66,-11.86 -35.37,-17.73 -59.15,-17.73 -27.27,0 -50.13,6.54 -68.43,19.63 -18.32,13.09 -31.23,30.72 -38.61,52.76 -7.46,22.13 -11.19,44.9 -11.19,68.35 0,30.25 4.39,56.67 13.18,79.21 8.77,22.61 22.44,39.43 41.01,50.62 18.55,11.17 38.59,16.73 60.23,16.73 26.34,0 48.55,-7.62 66.77,-22.79 18.22,-15.23 30.56,-37.76 37.03,-67.76zm66.44 124.85l136.53 -355.9 51.77 0 144.89 355.9 -53.59 0 -41.17 -107.86 -149.87 0 -38.59 107.86 -49.96 0zm102.41 -146.14l121.27 0 -37.11 -98.66c-11.19,-29.98 -19.63,-54.76 -25.52,-74.31 -4.88,23.2 -11.42,45.99 -19.63,68.51l-39 104.46zm268.15 146.14l0 -355.9 122.61 0c27.67,0 48.8,1.66 63.37,5.06 20.37,4.72 37.77,13.24 52.2,25.52 18.8,15.9 32.79,36.11 42.09,60.81 9.35,24.68 14,52.92 14,84.66 0,27.01 -3.15,50.95 -9.45,71.81 -6.31,20.9 -14.43,38.2 -24.28,51.87 -9.94,13.67 -20.7,24.45 -32.47,32.22 -11.68,7.87 -25.86,13.85 -42.42,17.91 -16.64,4.04 -35.7,6.05 -57.24,6.05l-128.41 0zm47.22 -41.76l75.89 0c23.45,0 41.83,-2.14 55.17,-6.54 13.34,-4.39 23.94,-10.51 31.91,-18.48 11.09,-11.17 19.78,-26.25 25.99,-45.15 6.23,-18.88 9.36,-41.75 9.36,-68.66 0,-37.28 -6.11,-65.95 -18.29,-85.99 -12.19,-20.04 -27.03,-33.47 -44.51,-40.27 -12.59,-4.9 -32.88,-7.28 -60.89,-7.28l-74.64 0 0 272.37zm297.33 -131.47c0,-58.98 15.9,-105.22 47.65,-138.6 31.73,-33.37 72.65,-50.03 122.86,-50.03 32.88,0 62.45,7.87 88.88,23.53 26.35,15.66 46.46,37.53 60.31,65.62 13.83,27.98 20.78,59.8 20.78,95.34 0,36.03 -7.29,68.35 -21.85,96.77 -14.59,28.49 -35.21,50.03 -61.89,64.62 -26.76,14.66 -55.6,21.95 -86.5,21.95 -33.55,0 -63.43,-8.13 -89.89,-24.28 -26.34,-16.15 -46.38,-38.18 -59.97,-66.18 -13.59,-27.91 -20.39,-57.5 -20.39,-88.74zm48.71 0.84c0,42.82 11.52,76.55 34.55,101.16 23.03,24.6 51.93,36.93 86.73,36.93 35.46,0 64.55,-12.42 87.49,-37.28 22.87,-24.86 34.29,-60.13 34.29,-105.86 0,-28.93 -4.88,-54.2 -14.66,-75.74 -9.78,-21.54 -24.1,-38.26 -42.91,-50.11 -18.88,-11.86 -40.01,-17.81 -63.45,-17.81 -33.3,0 -61.97,11.44 -85.99,34.31 -24.02,22.85 -36.05,60.95 -36.05,114.4z"/>
   <path class="fil7 str1" d="M2916.08 1224.06l-27.31 0 -25.3 192.37 35 0c41.88,0 74.89,-8.51 99.19,-25.35 24.32,-16.86 38.48,-41.22 42.63,-72.8 4.37,-33.2 -3.14,-57.09 -22.61,-71.98 -19.47,-14.89 -53.35,-22.25 -101.6,-22.25zm-263.04 568.27l91.43 -694.88 178.62 0c57.24,0 101.09,3.76 131.67,11.29 30.59,7.52 56.75,19.96 78.81,37.62 23.41,18.48 40.5,41.39 51.15,68.71 10.65,27.31 13.88,56.11 9.91,86.37 -5.78,43.83 -21.93,82.12 -48.5,114.99 -26.58,32.88 -62.02,58.56 -106.35,77.2l172.69 298.69 -189.42 0 -149.61 -272.85 -23.54 0 -35.9 272.85 -160.96 0zm737.4 -256.15l187.89 -5.73 0.89 -6.7c2.99,-22.74 -2.56,-41.39 -16.53,-55.94 -14.1,-14.56 -33.25,-21.92 -57.45,-21.92 -26.99,0 -50.77,7.85 -71.01,23.71 -20.24,15.87 -34.8,38.12 -43.79,66.59zm272.83 102.06l-34.14 132.67c-31.27,13.9 -61.59,24.37 -90.95,31.07 -29.33,6.72 -58.41,9.99 -87.52,9.99 -71.96,0 -127.15,-20.62 -165.87,-62.01 -38.54,-41.39 -53.53,-95.36 -44.79,-161.77 9.12,-69.37 40.86,-127.92 95.41,-175.68 54.55,-47.76 116.42,-71.65 185.44,-71.65 59.05,0 105.17,17.5 138.5,52.51 33.19,35.01 46.2,80.31 38.89,135.92 -1.13,8.51 -3.6,22.26 -7.41,41.22l-0.84 2.79 -15.99 19.45 -295.34 8.18c-1.56,29.11 7.43,52.84 26.96,70.99 19.7,18.15 46.33,27.16 79.7,27.16 23.72,0 50.55,-5.08 80.87,-15.38 30.12,-10.14 62.55,-25.35 97.08,-45.48zm466.65 129.56c-28.47,15.05 -56.11,26.17 -82.74,33.37 -26.63,7.2 -53.61,10.79 -80.75,10.79 -71.98,0 -128.18,-21.59 -168.63,-64.78 -40.63,-43.01 -56.49,-97.66 -47.78,-163.9 9.02,-68.54 41.48,-126.28 97.33,-172.74 55.83,-46.45 121.22,-69.68 196.29,-69.68 27.49,0 54.07,3.11 79.42,9.32 25.35,6.23 49.49,15.54 72.04,28.14l-34.54 134.3c-21.67,-14.39 -42.96,-25.35 -63.89,-32.88 -20.91,-7.52 -40.7,-11.29 -59.51,-11.29 -33.86,0 -63.37,10.3 -88.49,30.92 -25.12,20.6 -39.6,46.12 -43.62,76.71 -4.3,32.71 2.56,58.88 20.73,78.68 18.15,19.8 44.18,29.61 78.04,29.61 21.1,0 44.28,-4.58 69.35,-13.57 25.25,-9.17 54.99,-23.89 89.26,-44.34l-32.51 141.34zm247.07 24.53l-152.14 0 90.02 -684.08 154.85 -20.6 -92.73 704.68zm433.18 -322.25c-8.35,-5.06 -16.35,-8.82 -24.23,-10.96 -7.89,-2.28 -15.76,-3.43 -23.77,-3.43 -28.46,0 -54.09,11.94 -76.69,35.83 -22.57,23.71 -36.36,53.81 -41.12,89.97 -4.45,33.85 0.35,62.15 14.54,84.73 14.21,22.57 33.5,33.86 58.21,33.86 9.81,0 20.29,-2.63 31.45,-7.85 11.19,-5.41 23.03,-13.42 35.6,-24.38l26.02 -197.76zm164.59 -109.59l-35.52 269.89c-4.45,33.86 -7.56,62.33 -9.28,85.4 -1.71,22.89 -2.5,42.52 -2.04,58.88l-144.22 38.26 -8.02 -41.06c-20.65,13.92 -40.52,24.38 -59.54,31.08 -18.88,6.7 -38.28,9.97 -58.08,9.97 -55.78,0 -99.63,-22.25 -131.59,-66.57 -32.1,-44.49 -43.8,-99.78 -35.11,-165.86 9.18,-69.69 38.03,-127.26 86.52,-172.58 48.5,-45.31 105.3,-68.05 170.24,-68.05 14.89,0 30.31,2.14 46.12,6.23 15.82,4.07 32.97,10.47 51.64,19.12l128.87 -4.73zm491.97 431.84l-150.17 0 32.56 -247.5c2.91,-22.08 0.38,-38.92 -7.36,-50.87 -7.94,-11.78 -20.42,-17.66 -37.59,-17.66 -24.71,0 -45.03,8.99 -61.28,26.81 -16.27,18.01 -26.47,43.36 -30.79,76.23l-28.03 212.98 -150.17 0 56.83 -431.84 139.7 0 -9.51 72.29c28.7,-29.28 56.22,-50.7 82.35,-63.96 26.12,-13.41 53.68,-20.11 82.46,-20.11 31.58,0 56.9,6.54 75.77,19.63 18.75,12.91 33.48,33.86 44.11,62.48 24.71,-27.32 50.47,-47.93 77.32,-61.68 26.98,-13.57 55.04,-20.44 84.48,-20.44 47.93,0 81.51,13.41 100.83,40.4 19.19,26.99 25.15,68.71 17.73,125.14l-36.59 278.07 -150.17 0 32.56 -247.5c2.91,-22.08 0.39,-38.92 -7.36,-50.87 -7.94,-11.78 -20.42,-17.66 -37.59,-17.66 -25.02,0 -45.35,8.99 -61.45,26.81 -16.1,18.01 -26.3,43.36 -30.62,76.23l-28.03 212.98zm543.23 -256.15l187.89 -5.73 0.89 -6.7c2.99,-22.74 -2.56,-41.39 -16.53,-55.94 -14.1,-14.56 -33.25,-21.92 -57.45,-21.92 -26.99,0 -50.77,7.85 -71.01,23.71 -20.24,15.87 -34.8,38.12 -43.79,66.59zm272.83 102.06l-34.14 132.67c-31.27,13.9 -61.59,24.37 -90.95,31.07 -29.33,6.72 -58.41,9.99 -87.52,9.99 -71.96,0 -127.15,-20.62 -165.87,-62.01 -38.54,-41.39 -53.53,-95.36 -44.79,-161.77 9.12,-69.37 40.86,-127.92 95.41,-175.68 54.55,-47.76 116.42,-71.65 185.44,-71.65 59.05,0 105.17,17.5 138.5,52.51 33.19,35.01 46.2,80.31 38.89,135.92 -1.13,8.51 -3.6,22.26 -7.41,41.22l-0.84 2.79 -15.99 19.45 -295.34 8.18c-1.56,29.11 7.43,52.84 26.96,70.99 19.7,18.15 46.33,27.16 79.7,27.16 23.72,0 50.55,-5.08 80.87,-15.38 30.12,-10.14 62.55,-25.35 97.08,-45.48z"/>
   <path class="fil8 str2" d="M6609.97 1517.53l99.28 0 -7.02 -321.92 -92.27 321.92zm-249.3 274.8l258.09 -738.05 205.12 0 61.86 738.05 -172.4 0 -3.01 -141.33 -135.59 0 -40.19 141.33 -173.89 0zm933.75 -302.45l17.51 -133.15c10.76,-81.79 12.21,-132.51 4.44,-151.81 -7.75,-19.29 -25.14,-28.95 -51.97,-28.95 -26.34,0 -45.97,9.97 -58.72,29.77 -12.73,19.8 -24.41,70.01 -35.08,150.99l-17.51 133.15c-10.53,80 -12.04,130.04 -4.57,150.33 7.46,20.27 24.78,30.43 51.77,30.43 26.5,0 46.3,-9.99 59.03,-29.77 12.77,-19.8 24.43,-70.02 35.09,-150.99zm-77.66 319.15c-8.79,0.97 -17.42,1.79 -25.81,2.28 -8.58,0.49 -16.94,0.66 -25.29,0.66 -35.65,0 -66.38,-5.24 -92.45,-15.87 -25.94,-10.47 -47.1,-26.17 -63.52,-46.94 -20.75,-26.17 -33.48,-60.03 -37.97,-101.75 -4.49,-41.71 0.28,-116.47 14.44,-224.1 11.73,-89.15 23.4,-154.26 35.03,-195.32 11.6,-40.89 26.4,-72.62 44.39,-95.03 25.2,-32.23 55.83,-56.27 91.74,-71.81 35.75,-15.71 78.01,-23.56 126.43,-23.56 48.42,0 88.44,7.85 120.08,23.56 31.64,15.54 55.65,39.58 72.16,71.81 12.17,23.22 18.88,56.75 19.83,100.43 0.99,43.51 -4.07,106.81 -15,189.91 -14.47,109.91 -30.67,186.97 -48.45,231.3 -17.73,44.16 -43.14,78.02 -75.97,101.26l52.38 65.75 -111.02 91.45 -81.01 -104.03zm418.79 -754.75l174.7 0 -60.89 462.59c-9.18,69.84 -10.47,113.18 -3.83,129.88 6.49,16.53 20.93,24.86 43.34,24.86 22.74,0 39.41,-8.66 50.36,-25.84 10.94,-17.33 20.83,-60.2 29.87,-128.89l60.89 -462.59 170.77 0 -62.01 471.1c-7.02,53.31 -14.56,93.24 -22.59,119.56 -8.21,26.34 -18.76,49.24 -31.96,68.71 -21.87,33.2 -50.42,57.59 -85.66,73.11 -35.26,15.54 -79.62,23.23 -132.95,23.23 -49.22,0 -88.38,-7.2 -117.36,-21.75 -29.18,-14.56 -50.64,-37.79 -64.62,-69.68 -10.09,-22.74 -15.43,-51.85 -16.13,-87.36 -0.59,-35.32 4.67,-95.19 15.77,-179.61l52.3 -397.32zm487.98 738.05l97.13 -738.05 172.74 0 -97.13 738.05 -172.74 0z"/>
   <path class="fil9" d="M2651.34 2457.48l0 -371.52 275.02 0 0 62.78 -199.78 0 0 82.51 185.77 0 0 62.78 -185.77 0 0 100.66 207.05 0 0 62.79 -282.28 0zm345.06 0l0 -371.52 112.69 0 66.59 253.39 65.82 -253.39 112.95 0 0 371.52 -69.53 0 -0.26 -292.48 -73.26 292.48 -72.29 0 -72.91 -292.48 -0.25 292.48 -69.55 0zm433.3 0l0 -371.52 120.3 0c45.58,0 75.23,1.81 89.07,5.52 21.28,5.64 39.1,17.74 53.45,36.42 14.36,18.68 21.54,42.8 21.54,72.37 0,22.84 -4.16,41.94 -12.37,57.52 -8.3,15.56 -18.76,27.75 -31.48,36.67 -12.72,8.82 -25.68,14.7 -38.82,17.55 -17.91,3.55 -43.77,5.37 -77.66,5.37l-48.78 0 0 140.1 -75.23 0zm75.23 -308.75l0 105.86 40.91 0c29.49,0 49.12,-1.99 59.06,-5.88 9.94,-3.89 17.73,-9.94 23.35,-18.34 5.62,-8.3 8.48,-17.89 8.48,-28.97 0,-13.59 -3.98,-24.74 -11.85,-33.57 -7.95,-8.81 -17.91,-14.34 -30.1,-16.59 -8.9,-1.64 -26.81,-2.51 -53.79,-2.51l-36.06 0zm270.88 308.75l0 -371.52 158 0c39.69,0 68.58,3.37 86.57,10.02 18.07,6.65 32.43,18.52 43.24,35.55 10.81,17.12 16.25,36.57 16.25,58.54 0,27.93 -8.13,50.95 -24.46,69.1 -16.35,18.15 -40.75,29.57 -73.26,34.34 16.17,9.43 29.49,19.8 39.96,31.13 10.55,11.32 24.73,31.48 42.55,60.36l45.31 72.47 -89.69 0 -53.79 -81.11c-19.29,-28.8 -32.51,-46.97 -39.69,-54.5 -7.08,-7.43 -14.61,-12.62 -22.57,-15.39 -8.03,-2.76 -20.67,-4.14 -37.95,-4.14l-15.23 0 0 155.15 -75.23 0zm75.23 -214.31l55.52 0c35.98,0 58.39,-1.56 67.38,-4.58 8.9,-3.02 16,-8.3 21.01,-15.74 5.11,-7.43 7.61,-16.77 7.61,-27.93 0,-12.54 -3.37,-22.57 -10.02,-30.36 -6.67,-7.69 -16.08,-12.54 -28.19,-14.52 -6.14,-0.87 -24.4,-1.3 -54.74,-1.3l-58.56 0 0 94.44zm299.5 214.31l0 -371.52 275.02 0 0 62.78 -199.78 0 0 82.51 185.77 0 0 62.78 -185.77 0 0 100.66 207.05 0 0 62.79 -282.28 0zm326.38 -120.38l73.18 -7.26c4.4,24.46 13.23,42.37 26.63,53.87 13.41,11.5 31.48,17.2 54.22,17.2 24.05,0 42.21,-5.09 54.4,-15.3 12.19,-10.2 18.34,-22.15 18.34,-35.8 0,-8.82 -2.6,-16.27 -7.69,-22.49 -5.11,-6.14 -14.1,-11.5 -26.9,-16 -8.74,-3.11 -28.64,-8.48 -59.77,-16.25 -40.04,-10.04 -68.15,-22.33 -84.32,-36.93 -22.74,-20.5 -34.08,-45.49 -34.08,-74.98 0,-18.94 5.37,-36.75 16,-53.26 10.73,-16.53 26.12,-29.06 46.27,-37.71 20.16,-8.66 44.36,-12.98 72.91,-12.98 46.43,0 81.46,10.28 104.9,30.95 23.51,20.68 35.8,48.17 37,82.69l-75.23 2.6c-3.2,-19.21 -10.04,-32.96 -20.5,-41.35 -10.47,-8.38 -26.21,-12.62 -47.12,-12.62 -21.62,0 -38.58,4.5 -50.77,13.49 -7.87,5.8 -11.85,13.49 -11.85,23.18 0,8.82 3.71,16.35 11.16,22.57 9.41,8.03 32.33,16.35 68.74,24.99 36.41,8.56 63.32,17.55 80.7,26.71 17.46,9.27 31.13,21.8 40.99,37.8 9.86,16 14.79,35.72 14.79,59.15 0,21.28 -5.88,41.25 -17.73,59.85 -11.86,18.6 -28.54,32.43 -50.16,41.42 -21.62,9.09 -48.62,13.59 -80.87,13.59 -46.96,0 -83.02,-10.81 -108.19,-32.53 -25.17,-21.62 -40.14,-53.18 -45.07,-94.6zm700.53 120.38l-81.05 0 -32.07 -84.58 -149.02 0 -30.87 84.58 -79.57 0 144.25 -371.52 79.49 0 148.84 371.52zm-137.52 -147.37l-51.62 -137.5 -50.16 137.5 101.78 0zm282.71 26.99l73.18 -7.26c4.4,24.46 13.23,42.37 26.63,53.87 13.41,11.5 31.48,17.2 54.22,17.2 24.05,0 42.21,-5.09 54.4,-15.3 12.19,-10.2 18.34,-22.15 18.34,-35.8 0,-8.82 -2.6,-16.27 -7.69,-22.49 -5.11,-6.14 -14.1,-11.5 -26.9,-16 -8.74,-3.11 -28.64,-8.48 -59.77,-16.25 -40.04,-10.04 -68.15,-22.33 -84.32,-36.93 -22.74,-20.5 -34.08,-45.49 -34.08,-74.98 0,-18.94 5.37,-36.75 16,-53.26 10.73,-16.53 26.12,-29.06 46.27,-37.71 20.16,-8.66 44.36,-12.98 72.91,-12.98 46.43,0 81.46,10.28 104.9,30.95 23.51,20.68 35.8,48.17 37,82.69l-75.23 2.6c-3.2,-19.21 -10.04,-32.96 -20.5,-41.35 -10.47,-8.38 -26.21,-12.62 -47.12,-12.62 -21.62,0 -38.58,4.5 -50.77,13.49 -7.87,5.8 -11.85,13.49 -11.85,23.18 0,8.82 3.71,16.35 11.16,22.57 9.41,8.03 32.33,16.35 68.74,24.99 36.41,8.56 63.32,17.55 80.7,26.71 17.46,9.27 31.13,21.8 40.99,37.8 9.86,16 14.79,35.72 14.79,59.15 0,21.28 -5.88,41.25 -17.73,59.85 -11.86,18.6 -28.54,32.43 -50.16,41.42 -21.62,9.09 -48.62,13.59 -80.87,13.59 -46.96,0 -83.02,-10.81 -108.19,-32.53 -25.17,-21.62 -40.14,-53.18 -45.07,-94.6zm365.84 120.38l0 -371.52 275.02 0 0 62.78 -199.78 0 0 82.51 185.77 0 0 62.78 -185.77 0 0 100.66 207.05 0 0 62.79 -282.28 0zm345.06 0l0 -371.52 112.69 0 66.59 253.39 65.82 -253.39 112.95 0 0 371.52 -69.53 0 -0.26 -292.48 -73.26 292.48 -72.29 0 -72.91 -292.48 -0.25 292.48 -69.55 0zm574.87 0l0 -371.52 75.23 0 0 371.52 -75.23 0zm-11.94 -405.25l35.29 -75.76 79.39 0 -70.06 75.76 -44.62 0zm158.71 405.25l0 -371.52 72.82 0 152.89 248.98 0 -248.98 69.53 0 0 371.52 -75.15 0 -150.56 -244.23 0 244.23 -69.53 0zm374.73 -371.52l136.81 0c30.87,0 54.4,2.33 70.57,7.08 21.7,6.41 40.38,17.83 55.88,34.26 15.56,16.35 27.32,36.41 35.46,60.18 8.03,23.71 12.11,53.02 12.11,87.78 0,30.62 -3.81,56.91 -11.42,79.04 -9.25,27.08 -22.49,48.96 -39.69,65.64 -12.98,12.72 -30.53,22.57 -52.59,29.67 -16.51,5.27 -38.56,7.87 -66.24,7.87l-140.87 0 0 -371.52zm75.23 62.78l0 245.95 55.78 0c20.85,0 35.9,-1.2 45.15,-3.53 12.19,-3.04 22.23,-8.21 30.18,-15.49 8.05,-7.26 14.52,-19.19 19.55,-35.8 5.09,-16.59 7.61,-39.35 7.61,-68.05 0,-28.72 -2.51,-50.69 -7.61,-66.08 -5.03,-15.39 -12.11,-27.32 -21.19,-35.98 -9.09,-8.56 -20.59,-14.44 -34.58,-17.46 -10.38,-2.33 -30.89,-3.55 -61.33,-3.55l-33.55 0zm296.9 308.75l0 -371.52 75.23 0 0 371.52 -75.23 0zm384.42 -136.99l72.64 22.31c-11.16,40.91 -29.75,71.27 -55.7,91.15 -25.94,19.81 -58.8,29.75 -98.68,29.75 -49.37,0 -89.94,-16.86 -121.76,-50.59 -31.74,-33.73 -47.66,-79.83 -47.66,-138.37 0,-61.84 16,-109.93 47.93,-144.17 31.91,-34.26 73.93,-51.38 126,-51.38 45.49,0 82.41,13.49 110.79,40.38 16.96,15.92 29.57,38.74 38.05,68.58l-74.2 17.65c-4.42,-19.19 -13.59,-34.42 -27.5,-45.58 -14.01,-11.16 -30.97,-16.69 -50.85,-16.69 -27.6,0 -50,9.86 -67.12,29.67 -17.22,19.72 -25.78,51.72 -25.78,96 0,46.87 8.48,80.34 25.35,100.22 16.94,19.98 38.91,29.93 65.98,29.93 19.98,0 37.18,-6.33 51.54,-19.03 14.36,-12.72 24.74,-32.61 30.97,-59.85zm137.07 136.99l0 -371.52 275.02 0 0 62.78 -199.78 0 0 82.51 185.77 0 0 62.78 -185.77 0 0 100.66 207.05 0 0 62.79 -282.28 0z"/>
  </g>
 </g>
</svg>
